:SAMPLES-PER-SECOND 30
:FULLY-SPECIFIED
:DEGREES
1541
root  66.708 36.6349 7.79608 153.97 88.9438 159.614
RightUpLeg  -24.8289 -5.75614 -12.1336
RightLeg  56.8068 5.65458 8.82788
RightFoot  -1.94738 -1.4634 17.6442
RightToes  3.49245e-010 0 -3.6325e-017
Spine  26.2913 -1.24813 2.6439
Spine1  16.4999 0.877884 -4.84036
HEad  -7.02479 -0.573237 -4.99294
LeftShoulder1  1.35815 -4.15127 -10.4771
LeftArm  -44.4846 -64.9472 -18.283
LeftForeArm  -0.773068 -20.3735 -3.57577
LeftHand  -0.0171418 5.49794 5.66481
RightShoulder  0.311877 2.00118 -3.20586
RightArm  -17.1393 56.1208 35.037
RightForeArm  76.4375 48.4708 7.6873
RightHand  12.1597 -60.884 -22.4207
LeftUpLeg  -23.9967 13.0207 1.5383
LeftLeg  27.8458 -6.38161 -3.30561
LeftFoot  4.11866 -0.300308 2.02751
LeftToes  -2.21735e-009 9.83027e-011 -4.04511e-011
1542
root  67.0192 36.8676 7.59449 -167.399 89.2745 -163.118
RightUpLeg  -26.0035 -3.68659 -11.614
RightLeg  52.7886 5.23249 6.96351
RightFoot  -0.595809 -1.10526 11.528
RightToes  3.49245e-010 0 -3.6325e-017
Spine  27.1055 -1.26696 3.03433
Spine1  15.6788 0.823029 -4.40794
HEad  -5.4375 0.393419 -8.23457
LeftShoulder1  1.35203 -4.41088 -9.74998
LeftArm  -45.1491 -65.7528 -15.974
LeftForeArm  -5.33182 -19.0329 -2.89814
LeftHand  -0.0428908 4.8436 4.29278
RightShoulder  0.268803 1.81235 -3.94902
RightArm  -18.035 57.529 36.4335
RightForeArm  96.3014 46.1141 6.38294
RightHand  3.6289 -62.4347 -6.90106
LeftUpLeg  -24.3746 12.9172 1.77761
LeftLeg  26.815 -6.1472 -3.02873
LeftFoot  4.04091 -0.285881 1.93546
LeftToes  -2.21735e-009 9.83027e-011 -4.04511e-011
1543
root  67.2793 37.0299 7.55393 -151.292 88.8385 -147.939
RightUpLeg  -25.689 -0.537198 -11.5274
RightLeg  46.2148 5.39209 5.72994
RightFoot  -1.97779 -0.810586 9.78112
RightToes  3.49245e-010 0 -3.6325e-017
Spine  27.5422 -1.537 3.48951
Spine1  16.3356 1.27391 -6.09154
HEad  -4.87582 -1.66181 -10.5864
LeftShoulder1  1.29932 -4.61154 -8.53967
LeftArm  -47.9773 -67.087 -12.3171
LeftForeArm  -10.134 -18.1964 -2.43391
LeftHand  -0.0316678 5.1567 3.73641
RightShoulder  0.198775 0.770441 -3.69799
RightArm  -20.3797 58.6799 34.5277
RightForeArm  96.5522 44.997 6.08167
RightHand  3.77979 -63.0115 -7.1434
LeftUpLeg  -24.534 12.9806 1.89593
LeftLeg  25.9749 -6.55465 -3.12721
LeftFoot  4.193 -0.335714 2.27593
LeftToes  -2.21735e-009 9.83027e-011 -4.04511e-011
1544
root  67.5135 37.2405 7.52207 -147.442 88.3467 -145.024
RightUpLeg  -24.071 5.50886 -11.9943
RightLeg  36.7563 5.4812 4.11791
RightFoot  -3.53744 -0.894095 12.7253
RightToes  3.49245e-010 0 -3.6325e-017
Spine  27.7915 -2.05046 5.49704
Spine1  17.8637 2.33719 -8.87117
HEad  -4.44945 -3.86201 -10.3074
LeftShoulder1  1.2087 -4.47429 -7.5826
LeftArm  -51.9955 -69.7093 -6.97324
LeftForeArm  -13.5997 -17.6703 -2.2194
LeftHand  -0.0329502 5.00092 2.42996
RightShoulder  0.0932296 -1.93647 -1.36301
RightArm  -23.7809 60.8645 30.2253
RightForeArm  94.9425 44.2981 5.9334
RightHand  4.19886 -63.364 -7.80416
LeftUpLeg  -24.3813 12.9714 1.91097
LeftLeg  24.4027 -6.97329 -3.11261
LeftFoot  4.57249 -0.303603 1.97029
LeftToes  -2.21735e-009 9.83027e-011 -4.04511e-011
1545
root  67.7648 37.212 7.68495 -169.697 87.6492 -168.472
RightUpLeg  -23.4632 10.1175 -13.0887
RightLeg  29.7036 8.05426 4.63307
RightFoot  -4.20959 -0.885682 13.8061
RightToes  3.49245e-010 0 -3.6325e-017
Spine  28.2353 -1.44737 0.0568103
Spine1  14.6214 -0.389755 -3.41792
HEad  -1.97429 1.74556 -15.549
LeftShoulder1  1.32038 -4.78652 -8.46174
LeftArm  -51.1112 -65.9795 -7.67604
LeftForeArm  -14.9605 -17.3317 -1.72289
LeftHand  -0.031373 4.96614 1.6847
RightShoulder  0.270441 2.68514 -4.91167
RightArm  -24.3001 59.0713 32.2452
RightForeArm  107.131 42.6643 5.38441
RightHand  -0.659691 -61.7987 0.459381
LeftUpLeg  -25.5482 12.9376 1.30139
LeftLeg  24.6714 -7.70461 -3.50879
LeftFoot  4.15779 -0.234879 1.54185
LeftToes  -2.21735e-009 9.83027e-011 -4.04511e-011
1546
root  67.9938 37.2469 7.84034 -178.343 86.9807 -177.957
RightUpLeg  -23.0966 13.4666 -13.7129
RightLeg  25.0446 13.2486 6.52659
RightFoot  -3.48569 -0.699613 9.7568
RightToes  3.49245e-010 0 -3.6325e-017
Spine  28.7078 -1.73417 0.0754455
Spine1  13.7995 -0.277969 -4.53284
HEad  -0.44087 2.93481 -16.5715
LeftShoulder1  1.3291 -5.07396 -7.97099
LeftArm  -53.125 -66.3152 -4.93266
LeftForeArm  -16.1674 -17.2995 -1.72681
LeftHand  -0.0296921 4.82174 0.847886
RightShoulder  0.277447 2.45205 -4.34642
RightArm  -27.4648 58.7134 31.1355
RightForeArm  102.446 42.9376 5.44744
RightHand  2.22533 -61.0977 -4.53149
LeftUpLeg  -26.0306 12.6696 0.900291
LeftLeg  24.3458 -8.05736 -3.6256
LeftFoot  4.28264 -0.26589 1.74756
LeftToes  -2.21735e-009 9.83027e-011 -4.04511e-011
1547
root  68.1348 37.2959 8.07685 -179.4 85.9795 -179.882
RightUpLeg  -22.8479 16.3401 -13.9274
RightLeg  22.7272 12.0754 5.29348
RightFoot  -5.26426 -0.523041 9.17044
RightToes  3.49245e-010 0 -3.6325e-017
Spine  28.7595 -1.77608 -0.317766
Spine1  13.9441 -0.620804 -3.90895
HEad  0.440528 4.09697 -18.1644
LeftShoulder1  1.30447 -4.95049 -7.90003
LeftArm  -56.2627 -66.5981 -2.25111
LeftForeArm  -16.1935 -17.9563 -2.09497
LeftHand  -0.0284247 4.76414 0.509928
RightShoulder  0.268818 2.24415 -4.33021
RightArm  -31.3509 58.8017 30.5786
RightForeArm  93.5116 43.1153 5.66963
RightHand  5.62677 -58.7322 -12.0086
LeftUpLeg  -26.592 12.0721 0.875113
LeftLeg  23.7274 -8.49996 -3.7324
LeftFoot  4.75295 -0.266695 1.68481
LeftToes  -2.21735e-009 9.83027e-011 -4.04511e-011
1548
root  68.1767 37.3681 8.30475 178.916 85.7743 177.914
RightUpLeg  -23.107 16.6843 -13.8852
RightLeg  22.4803 10.9842 4.74652
RightFoot  -5.44517 -0.485823 8.7013
RightToes  3.49245e-010 0 -3.6325e-017
Spine  29.2049 -1.58334 -0.252076
Spine1  13.8571 -0.542007 -3.56699
HEad  1.24274 5.49709 -19.7772
LeftShoulder1  1.31714 -4.96999 -8.03355
LeftArm  -58.1267 -66.7364 0.344028
LeftForeArm  -17.0733 -18.4249 -2.56194
LeftHand  -0.0305064 4.68075 0.825835
RightShoulder  0.254531 2.09548 -4.48001
RightArm  -36.439 57.5445 28.9059
RightForeArm  44.2663 42.5666 7.41812
RightHand  12.8082 -42.4308 -34.8996
LeftUpLeg  -26.5743 11.5595 1.05548
LeftLeg  22.6275 -8.33514 -3.46415
LeftFoot  5.35428 -0.177717 0.989615
LeftToes  -2.21735e-009 9.83027e-011 -4.04511e-011
